<svg xmlns="http://www.w3.org/2000/svg" width="68.323" height="83.781" viewBox="0 0 68.323 83.781">
  <g id="Group_2360" data-name="Group 2360" transform="translate(0.5 0.5)">
    <path id="Path_226" data-name="Path 226" d="M140.465,94.319,125.471,25.987,73.237,38.554l15.847,70.213,11.76-2.84" transform="translate(-73.237 -25.987)" fill="none" stroke="#ff8c07" stroke-linecap="round" stroke-linejoin="round" stroke-miterlimit="10" stroke-width="1"/>
    <path id="Path_227" data-name="Path 227" d="M115.52,81.494c-.56.447-6.045.572-15.615,9.081s-18.447,26.611-18.447,26.611l39.561-11.6" transform="translate(-53.851 -37.245)" fill="none" stroke="#ff8c07" stroke-linecap="round" stroke-linejoin="round" stroke-miterlimit="10" stroke-width="1"/>
    <path id="Path_228" data-name="Path 228" d="M115.2,122.12a90.13,90.13,0,0,1,6.153-11.553s-7.8-6.037-22.181-4.494l4.266,18.886Z" transform="translate(-87.594 -42.179)" fill="#ff8c07" opacity="0.3"/>
    <path id="Path_229" data-name="Path 229" d="M115.2,122.12a90.13,90.13,0,0,1,6.153-11.553s-7.8-6.037-22.181-4.494l4.266,18.886Z" transform="translate(-87.594 -42.179)" fill="none" stroke="#ff8c07" stroke-linecap="round" stroke-linejoin="round" stroke-miterlimit="10" stroke-width="1"/>
    <path id="Path_230" data-name="Path 230" d="M107.773,58.206a7.07,7.07,0,0,0,8.495,5.458,7.316,7.316,0,0,0,5.287-8.771,7.07,7.07,0,0,0-8.495-5.458A7.316,7.316,0,0,0,107.773,58.206Z" transform="translate(-94.686 -30.704)" fill="#ff8c07" opacity="0.3"/>
    <path id="Path_231" data-name="Path 231" d="M107.773,58.206a7.07,7.07,0,0,0,8.495,5.458,7.316,7.316,0,0,0,5.287-8.771,7.07,7.07,0,0,0-8.495-5.458A7.316,7.316,0,0,0,107.773,58.206Z" transform="translate(-94.686 -30.704)" fill="none" stroke="#ff8c07" stroke-linecap="round" stroke-linejoin="round" stroke-miterlimit="10" stroke-width="1"/>
  </g>
</svg>
