<svg id="error_outlined" xmlns="http://www.w3.org/2000/svg" width="24" height="24" viewBox="0 0 24 24">
  <rect id="Bounding_box" data-name="Bounding box" width="24" height="24" fill="rgba(255,255,255,0)"/>
  <path id="Icon_color" data-name="Icon color" d="M10,20A10,10,0,1,1,20,10,10.011,10.011,0,0,1,10,20ZM10,2a8,8,0,1,0,8,8A8.009,8.009,0,0,0,10,2Zm.5,12h-1a.5.5,0,0,1-.5-.5v-1a.5.5,0,0,1,.5-.5h1a.5.5,0,0,1,.5.5v1A.5.5,0,0,1,10.5,14ZM9.468,10a.25.25,0,0,1-.248-.22l-.4-3.22a.5.5,0,0,1,.5-.56H10.68a.5.5,0,0,1,.5.56l-.4,3.22a.25.25,0,0,1-.248.22H9.468Z" transform="translate(2 2)" fill="#cfcfcf"/>
</svg>
