<svg xmlns="http://www.w3.org/2000/svg" xmlns:xlink="http://www.w3.org/1999/xlink" width="120.646" height="120.646" viewBox="0 0 154.646 154.646">
  <defs>
    <filter id="Ellipse_" x="0" y="0" width="144.646" height="144.646" filterUnits="userSpaceOnUse">
      <feOffset dy="3" input="SourceAlpha"/>
      <feGaussianBlur stdDeviation="10" result="blur"/>
      <feFlood flood-opacity="0.161"/>
      <feComposite operator="in" in2="blur"/>
      <feComposite in="SourceGraphic"/>
    </filter>
  </defs>
  <g id="Group_2367" data-name="Group 2367" transform="translate(30 27)">
    <g transform="matrix(1, 0, 0, 1, -30, -27)" filter="url(#Ellipse_)">
      <circle id="Ellipse_2" data-name="Ellipse " cx="47.323" cy="47.323" r="47.323" transform="translate(30 27)" fill="#fff"/>
    </g>
    <g id="Format" transform="translate(-612.932 -4072.983)" fill="#ff8c07">
      <path d="M 653.4951171875 4133.95556640625 C 653.3153686523438 4133.95556640625 653.136474609375 4133.91064453125 652.9774169921875 4133.8251953125 C 652.6115112304688 4133.63427734375 652.3844604492188 4133.255859375 652.3844604492188 4132.8369140625 L 652.3844604492188 4108.04443359375 C 652.3844604492188 4107.626953125 652.6116943359375 4107.24755859375 652.9774169921875 4107.05419921875 C 653.1377563476563 4106.96923828125 653.3175659179688 4106.9248046875 653.4974365234375 4106.9248046875 C 653.7260131835938 4106.9248046875 653.9449462890625 4106.99462890625 654.1307983398438 4107.126953125 L 671.8355712890625 4119.52001953125 C 672.1347045898438 4119.73095703125 672.3126220703125 4120.07568359375 672.3126220703125 4120.44287109375 C 672.3126220703125 4120.80859375 672.1338500976563 4121.1513671875 671.8344116210938 4121.35986328125 L 654.1287841796875 4133.75390625 C 653.9410400390625 4133.8857421875 653.7217407226563 4133.95556640625 653.4951171875 4133.95556640625 Z" stroke="none"/>
      <path d="M 653.4974365234375 4107.4248046875 C 653.3994140625 4107.4248046875 653.3010864257813 4107.44873046875 653.2113037109375 4107.49609375 C 653.0101318359375 4107.6025390625 652.8844604492188 4107.814453125 652.8844604492188 4108.04443359375 L 652.8844604492188 4132.8369140625 C 652.8844604492188 4133.06640625 653.0101318359375 4133.279296875 653.2113037109375 4133.38330078125 C 653.3004760742188 4133.431640625 653.3980102539063 4133.45556640625 653.4951171875 4133.45556640625 C 653.61669921875 4133.45556640625 653.7377319335938 4133.41748046875 653.842041015625 4133.34423828125 L 671.548828125 4120.94921875 C 671.7144165039063 4120.833984375 671.8126220703125 4120.6435546875 671.8126220703125 4120.44287109375 C 671.8126220703125 4120.2353515625 671.7138061523438 4120.0458984375 671.548828125 4119.9296875 L 653.842041015625 4107.53515625 C 653.7386474609375 4107.4609375 653.6182250976563 4107.4248046875 653.4974365234375 4107.4248046875 M 653.4974365234375 4106.4248046875 L 653.49755859375 4106.4248046875 C 653.8296508789063 4106.4248046875 654.1478881835938 4106.52587890625 654.4183349609375 4106.7177734375 L 672.122314453125 4119.1103515625 C 672.5554809570313 4119.41552734375 672.8126220703125 4119.9130859375 672.8126220703125 4120.44287109375 C 672.8126220703125 4120.97216796875 672.5537109375 4121.46826171875 672.1200561523438 4121.77001953125 L 654.41552734375 4134.16357421875 C 654.1437377929688 4134.3544921875 653.8250732421875 4134.45556640625 653.4951171875 4134.45556640625 C 653.2342529296875 4134.45556640625 652.9747924804688 4134.390625 652.7440795898438 4134.267578125 C 652.2135620117188 4133.9892578125 651.8844604492188 4133.4423828125 651.8844604492188 4132.8369140625 L 651.8844604492188 4108.04443359375 C 651.8844604492188 4107.44140625 652.2136840820313 4106.892578125 652.7435913085938 4106.6123046875 C 652.9757690429688 4106.4892578125 653.2363891601563 4106.4248046875 653.4974365234375 4106.4248046875 Z" stroke="none" fill="#d9d9d9"/>
    </g>
  </g>
</svg>
