<svg xmlns="http://www.w3.org/2000/svg" width="77.059" height="63.686" viewBox="0 0 77.059 63.686">
  <g id="image_1564925423628098093" transform="matrix(0.809, 0.588, -0.588, 0.809, 46.632, -32.259)">
    <g id="Group_68" data-name="Group 68" transform="translate(37.801 12.609)">
      <path id="Path_233" data-name="Path 233" d="M46.534,126.714a14.986,14.986,0,0,0,1.885-7.922L46.881,73.814c0-1.506-.8-2.738-1.775-2.738H44.54c-.976,0-1.775,1.232-1.775,2.738l-1.538,44.978a14.986,14.986,0,0,0,1.885,7.922h3.422Z" transform="translate(-40.313 -71.076)" fill="none" stroke="#ff8c07" stroke-linecap="round" stroke-linejoin="round" stroke-miterlimit="10" stroke-width="1"/>
      <path id="Path_234" data-name="Path 234" d="M49.333,61.263c0-3.2-1.938-5.785-4.328-5.785s-5.266,2.731-4.328,5.785a21.463,21.463,0,0,1,.732,9.812S49.333,64.458,49.333,61.263Z" transform="translate(-40.495 0.161)" fill="#ff8c07" opacity="0.3"/>
      <path id="Path_235" data-name="Path 235" d="M49.333,61.263c0-3.2-1.938-5.785-4.328-5.785s-5.266,2.731-4.328,5.785a21.463,21.463,0,0,1,.732,9.812S49.333,64.458,49.333,61.263Z" transform="translate(-40.495 0.161)" fill="none" stroke="#ff8c07" stroke-linecap="round" stroke-linejoin="round" stroke-miterlimit="10" stroke-width="1"/>
    </g>
    <path id="Path_236" data-name="Path 236" d="M41.47,80.817h6.79l.14,4.093H41.33Z" transform="translate(-2.596 -26.404)" fill="#ff8c07" opacity="0.3"/>
    <path id="Path_237" data-name="Path 237" d="M41.428,80.775h6.791l.14,4.093H41.288Z" transform="translate(-2.513 -26.32)" fill="none" stroke="#ff8c07" stroke-linecap="round" stroke-linejoin="round" stroke-miterlimit="10" stroke-width="1"/>
    <g id="Group_2358" data-name="Group 2358" transform="translate(20.527 74.881)">
      <line id="Line_18" data-name="Line 18" y1="11.119" transform="translate(6.224 0)" fill="none" stroke="#ff8c07" stroke-linecap="round" stroke-linejoin="round" stroke-miterlimit="10" stroke-width="1"/>
      <line id="Line_19" data-name="Line 19" x2="12.447" transform="translate(0 5.559)" fill="none" stroke="#ff8c07" stroke-linecap="round" stroke-linejoin="round" stroke-miterlimit="10" stroke-width="1"/>
    </g>
    <g id="Group_2359" data-name="Group 2359" transform="translate(-5.233 67.219)">
      <line id="Line_20" data-name="Line 20" y1="7.452" transform="translate(3.726 0)" fill="none" stroke="#ff8c07" stroke-linecap="round" stroke-linejoin="round" stroke-miterlimit="10" stroke-width="1"/>
      <line id="Line_21" data-name="Line 21" x2="7.452" transform="translate(0 3.726)" fill="none" stroke="#ff8c07" stroke-linecap="round" stroke-linejoin="round" stroke-miterlimit="10" stroke-width="1"/>
    </g>
  </g>
</svg>
