<svg xmlns="http://www.w3.org/2000/svg" width="90.829" height="93.28" viewBox="0 0 90.829 93.28">
  <g id="Group_2415" data-name="Group 2415" transform="translate(-601.901 -3441.99)">
    <g id="blog" transform="translate(621.24 3463.425)">
      <path id="Path_55887" data-name="Path 55887" d="M61.068,60.548A.548.548,0,1,1,60.52,60,.548.548,0,0,1,61.068,60.548Zm0,0" transform="translate(-59.973 -60)" fill="#ff8c07"/>
      <path id="Path_55888" data-name="Path 55888" d="M121.068,60.548a.548.548,0,1,1-.548-.548A.548.548,0,0,1,121.068,60.548Zm0,0" transform="translate(-111.632 -60)" fill="#ff8c07"/>
      <path id="Path_55889" data-name="Path 55889" d="M181.068,60.548a.548.548,0,1,1-.548-.548A.548.548,0,0,1,181.068,60.548Zm0,0" transform="translate(-163.291 -60)" fill="#ff8c07"/>
      <path id="Path_55892" data-name="Path 55892" d="M30.062,9.117h28.9" transform="translate(-7.671 -8.57)" fill="none" stroke="#ff8c07" stroke-linecap="round" stroke-width="1"/>
    </g>
    <g id="Group_2361" data-name="Group 2361" transform="matrix(0.809, 0.588, -0.588, 0.809, 662.229, 3467.7)">
      <path id="Path_233" data-name="Path 233" d="M4.309,45.174a12.168,12.168,0,0,0,1.53-6.432L4.591,2.223C4.591,1,3.942,0,3.149,0H2.69C1.9,0,1.249,1,1.249,2.223L0,38.742a12.168,12.168,0,0,0,1.53,6.432H4.309Z" transform="translate(0.742)" fill="none" stroke="#ff8c07" stroke-linecap="round" stroke-linejoin="round" stroke-miterlimit="10" stroke-width="1"/>
      <path id="Path_234" data-name="Path 234" d="M7.176,4.7C7.176,2.1,5.6,0,3.662,0S-.614,2.217.148,4.7a17.427,17.427,0,0,1,.594,7.967S7.176,7.291,7.176,4.7Z" transform="translate(0 45.175)" fill="#ff8c07" opacity="0.3"/>
      <path id="Path_235" data-name="Path 235" d="M7.176,4.7C7.176,2.1,5.6,0,3.662,0S-.614,2.217.148,4.7a17.427,17.427,0,0,1,.594,7.967S7.176,7.291,7.176,4.7Z" transform="translate(0 45.175)" fill="none" stroke="#ff8c07" stroke-linecap="round" stroke-linejoin="round" stroke-miterlimit="10" stroke-width="1"/>
    </g>
    <path id="Path_55885" data-name="Path 55885" d="M74.02,63.776,59.3,0,0,14.267,15.05,77.391,74.02,63.776" transform="translate(619.909 3442.59) rotate(13)" fill="none" stroke="#ff8c07" stroke-linecap="round" stroke-linejoin="round" stroke-miterlimit="10" stroke-width="1"/>
  </g>
</svg>
