<svg xmlns="http://www.w3.org/2000/svg" width="72.84" height="68.451" viewBox="0 0 72.84 68.451">
  <path id="Path_240" data-name="Path 240" d="M7.223,41.942l-.062-24.2H18.437c-4.331-4.264-8.663-8.608-8.663-9.558a3.245,3.245,0,0,1,1.1-2.359l3.713-3.417a2.971,2.971,0,0,1,3.311,0l3.5,3.417,3.919,3.791,7.228,7.635,38.047.223V5.246c0-.644,1.165-.856,1.81-.856,5.06,0,7.6,3.927,7.6,8.987l-.534,49.7c0,.086-.115,2.991-1.667,4.5a10.02,10.02,0,0,1-6.568,2.769H7.223Zm9.928-38.43a1.225,1.225,0,0,0-1.731,0L11.794,7.138a1.225,1.225,0,0,0,0,1.731l2.312,2.312,5.357-5.357Zm3.349,3.3L15.068,12.1,17.9,14.971l5.357-5.357ZM9.1,68.838l62.466.177a6.468,6.468,0,0,0,6.5-6.295q-.01-.333-.052-.659v0q-.02-.155-.047-.308l-.006-.035q-.024-.137-.055-.272l-.017-.075q-.027-.115-.057-.228c-.011-.041-.023-.082-.035-.122-.017-.059-.141-.432-.156-.473-.028-.076-.059-.152-.09-.227l-.027-.065c-.04-.093-.081-.185-.125-.276l-.005-.012a6.868,6.868,0,0,0-4.774-3.733c-.006,0-2.053-.535-2.053-1.179v-8.59H72.4v8.191a25.033,25.033,0,0,1,4.593,2.306c1.658,1.193,1.322,1.484,1.322,1.484l.167-45.066c0-3.375-2.863-6.188-6.082-6.744V41.8H70.57L70.588,19.3l-36.138-.4,7.736,7.287-.8.7L32.541,18.9h0l-8.464-8.654-5.639,5.57c1.739,1.434,1.81,3.013,24.638,25.578l5.985-5.974-4.108-4.835L46,29.516s4.831,5.9,4.834,5.9C54.707,44.862,55.8,46.338,55.81,46.4l3.748.064c.644,0,.644,1.395,0,1.395l-32.31-.352a.523.523,0,0,1,0-1.043l25.707.127c-9.573-3.1-9.944-3.379-9.974-3.409L19.463,19.243H8.738C9.088,50.733,9.1,68.838,9.1,68.838Zm34.7-26.9,4.676,1.912L51.4,40.9,49.776,36.45Z" transform="translate(-7.161 -1.904)" fill="#ff8c07"/>
</svg>
